<?xml version="1.0" encoding="UTF-8"?>
<svg version="1.1" xmlns="http://www.w3.org/2000/svg" width="213" height="60">
<path d="M0 0 C165 0 330 0 500 0 C500 165 500 330 500 500 C335 500 170 500 0 500 C0 335 0 170 0 0 Z " fill="#F4F2EE" transform="translate(0,0)"/>
<path d="M0 0 C0.33 0.66 0.66 1.32 1 2 C0.34 2 -0.32 2 -1 2 C-1 2.66 -1 3.32 -1 4 C-0.34 4 0.32 4 1 4 C1.33 4.99 1.66 5.98 2 7 C2.99 6.67 3.98 6.34 5 6 C11.28991154 7.04476497 16.13657897 8.84877196 20 14 C20 14.99 20 15.98 20 17 C19.34 17.66 18.68 18.32 18 19 C18.495 19.99 18.495 19.99 19 21 C19.039992 22.99960012 19.04346799 25.00047242 19 27 C19.99 27 20.98 27 22 27 C22 33.93 22 40.86 22 48 C21.01 48 20.02 48 19 48 C18.505 48.99 18.505 48.99 18 50 C5.79 50 -6.42 50 -19 50 C-17.36768634 45.91921584 -15.7416683 42.82515683 -13.375 39.1875 C-12.42753906 37.72376953 -12.42753906 37.72376953 -11.4609375 36.23046875 C-10.97882812 35.49441406 -10.49671875 34.75835937 -10 34 C-12.47266765 34.34444881 -12.47266765 34.34444881 -15 35 C-15.33 35.66 -15.66 36.32 -16 37 C-16.66 37 -17.32 37 -18 37 C-18 35.02 -18 33.04 -18 31 C-13.71 31 -9.42 31 -5 31 C-8.77593959 26.71929002 -8.77593959 26.71929002 -14 25 C-14 24.34 -14 23.68 -14 23 C-14.639375 23.33 -15.27875 23.66 -15.9375 24 C-20.01236841 25.33056928 -23.75190425 25.16659199 -28 25 C-27.79375 24.05125 -27.5875 23.1025 -27.375 22.125 C-27.25125 21.09375 -27.1275 20.0625 -27 19 C-27.66 18.34 -28.32 17.68 -29 17 C-29 13.80463916 -27.74614866 12.72662164 -25.5625 10.375 C-21.61591491 7.25623519 -16.93961682 6.39070416 -12 6 C-11.67 6.33 -11.34 6.66 -11 7 C-10.67 6.01 -10.34 5.02 -10 4 C-6.71536341 1.81024227 -3.79303725 1.00193437 0 0 Z " fill="#12110D" transform="translate(67,0)"/>
<path d="M0 0 C4.62 0.66 9.24 1.32 14 2 C14 2.66 14 3.32 14 4 C14.99 4 15.98 4 17 4 C17 10.93 17 17.86 17 25 C16.01 25 15.02 25 14 25 C13.67 25.66 13.34 26.32 13 27 C0.79 27 -11.42 27 -24 27 C-22.36768634 22.91921584 -20.7416683 19.82515683 -18.375 16.1875 C-17.74335937 15.21167969 -17.11171875 14.23585938 -16.4609375 13.23046875 C-15.97882812 12.49441406 -15.49671875 11.75835937 -15 11 C-17.47266765 11.34444881 -17.47266765 11.34444881 -20 12 C-20.33 12.66 -20.66 13.32 -21 14 C-21.66 14 -22.32 14 -23 14 C-23 12.02 -23 10.04 -23 8 C-21.7315625 7.99613281 -21.7315625 7.99613281 -20.4375 7.9921875 C-12.50486197 7.72175666 -7.70803194 6.6390527 -2 1 C-1.67 1.33 -1.34 1.66 -1 2 C-0.67 1.34 -0.34 0.68 0 0 Z " fill="#E8E6E2" transform="translate(72,23)"/>
<path d="M0 0 C2.39652528 -0.08139142 4.79025436 -0.14067009 7.1875 -0.1875 C7.86103516 -0.21263672 8.53457031 -0.23777344 9.22851562 -0.26367188 C13.66944444 -0.32866108 16.53447605 0.15189699 20 3 C20.59587577 7.08600528 20.31567384 8.52648925 18 12 C18.7425 12.5259375 18.7425 12.5259375 19.5 13.0625 C21.81346701 16.05072823 21.4568702 18.34503841 21 22 C19.2148416 24.05834887 17.79617394 24.9031202 15.07788086 25.23388672 C12.79434985 25.29556933 10.53309655 25.26133148 8.25 25.1875 C7.06083984 25.16719727 7.06083984 25.16719727 5.84765625 25.14648438 C3.89814436 25.11125223 1.94898374 25.05744821 0 25 C0 24.34 0 23.68 0 23 C0.99 23 1.98 23 3 23 C3 16.07 3 9.14 3 2 C2.01 2 1.02 2 0 2 C0 1.34 0 0.68 0 0 Z " fill="#0E0E0E" transform="translate(1,25)"/>
<path d="M0 0 C2.39652528 -0.08139142 4.79025436 -0.14067009 7.1875 -0.1875 C7.86103516 -0.21263672 8.53457031 -0.23777344 9.22851562 -0.26367188 C13.66944444 -0.32866108 16.53447605 0.15189699 20 3 C20.59587577 7.08600528 20.31567384 8.52648925 18 12 C18.495 12.37125 18.99 12.7425 19.5 13.125 C21 15 21 15 21.375 18 C21 21 21 21 19.625 22.8125 C15.88529341 25.5453625 12.32913272 25.11250322 7.875 25.0625 C7.12089844 25.05798828 6.36679688 25.05347656 5.58984375 25.04882812 C3.72652873 25.03703499 1.86325445 25.01909942 0 25 C0 24.34 0 23.68 0 23 C0.99 23 1.98 23 3 23 C3 16.07 3 9.14 3 2 C2.01 2 1.02 2 0 2 C0 1.34 0 0.68 0 0 Z " fill="#FECA13" transform="translate(86,25)"/>
<path d="M0 0 C2.64 0 5.28 0 8 0 C8 5.28 8 10.56 8 16 C9.32 15.67 10.64 15.34 12 15 C12.33 10.71 12.66 6.42 13 2 C12.34 2 11.68 2 11 2 C11 1.34 11 0.68 11 0 C13.64 0 16.28 0 19 0 C19 5.61 19 11.22 19 17 C19.66 17 20.32 17 21 17 C21 17.66 21 18.32 21 19 C17.66666667 19 14.33333333 19 11 19 C9.515 19.12375 9.515 19.12375 8 19.25 C5 19 5 19 3.3515625 17.36328125 C1.68005812 14.44056405 1.53275051 12.28762262 1.375 8.9375 C1.20448389 5.65303498 1.0433539 3.13006169 0 0 Z " fill="#151514" transform="translate(25,31)"/>
<path d="M0 0 C0.88429687 -0.02578125 1.76859375 -0.0515625 2.6796875 -0.078125 C5.125 0.25 5.125 0.25 6.90625 1.359375 C8.68317367 4.11588479 8.61089071 6.4992355 8.75 9.75 C8.97039768 14.58459691 8.97039768 14.58459691 10.125 19.25 C7.125 19.25 4.125 19.25 1.125 19.25 C-0.03 19.29125 -1.185 19.3325 -2.375 19.375 C-5.875 19.25 -5.875 19.25 -7.875 17.25 C-8.19839354 14.21010077 -8.33170212 12.10631647 -6.875 9.375 C-3.62186316 7.54511053 -0.56109891 8.06871645 3.125 8.25 C2.795 6.6 2.465 4.95 2.125 3.25 C1.135 3.25 0.145 3.25 -0.875 3.25 C-1.205 4.24 -1.535 5.23 -1.875 6.25 C-3.195 5.92 -4.515 5.59 -5.875 5.25 C-5.875 -0.36851336 -5.12145685 0.08906881 0 0 Z " fill="#FEC806" transform="translate(178.875,30.75)"/>
<path d="M0 0 C0.88429687 -0.02578125 1.76859375 -0.0515625 2.6796875 -0.078125 C5.125 0.25 5.125 0.25 6.90625 1.359375 C8.68317367 4.11588479 8.61089071 6.4992355 8.75 9.75 C8.97039768 14.58459691 8.97039768 14.58459691 10.125 19.25 C7.125 19.25 4.125 19.25 1.125 19.25 C-0.03 19.29125 -1.185 19.3325 -2.375 19.375 C-5.875 19.25 -5.875 19.25 -7.875 17.25 C-8.19839354 14.21010077 -8.33170212 12.10631647 -6.875 9.375 C-3.62186316 7.54511053 -0.56109891 8.06871645 3.125 8.25 C2.795 6.6 2.465 4.95 2.125 3.25 C1.135 3.25 0.145 3.25 -0.875 3.25 C-1.205 4.24 -1.535 5.23 -1.875 6.25 C-3.195 5.92 -4.515 5.59 -5.875 5.25 C-5.875 -0.36851336 -5.12145685 0.08906881 0 0 Z " fill="#FEC806" transform="translate(157.875,30.75)"/>
<path d="M0 0 C0.88429688 -0.02578125 1.76859375 -0.0515625 2.6796875 -0.078125 C5.125 0.25 5.125 0.25 6.90625 1.359375 C8.68317367 4.11588479 8.61089071 6.4992355 8.75 9.75 C8.97039768 14.58459691 8.97039768 14.58459691 10.125 19.25 C7.125 19.25 4.125 19.25 1.125 19.25 C-0.03 19.29125 -1.185 19.3325 -2.375 19.375 C-5.875 19.25 -5.875 19.25 -7.875 17.25 C-8.19839354 14.21010077 -8.33170212 12.10631647 -6.875 9.375 C-3.62186316 7.54511053 -0.56109891 8.06871645 3.125 8.25 C2.795 6.6 2.465 4.95 2.125 3.25 C1.135 3.25 0.145 3.25 -0.875 3.25 C-1.205 4.24 -1.535 5.23 -1.875 6.25 C-3.195 5.92 -4.515 5.59 -5.875 5.25 C-5.875 -0.36851336 -5.12145685 0.08906881 0 0 Z " fill="#FEC806" transform="translate(117.875,30.75)"/>
<path d="M0 0 C4.95 0 9.9 0 15 0 C14.01 1.485 14.01 1.485 13 3 C11.68 2.67 10.36 2.34 9 2 C9 4.97 9 7.94 9 11 C9.99 11.33 10.98 11.66 12 12 C11.01 12 10.02 12 9 12 C9 15.63 9 19.26 9 23 C10.65 23 12.3 23 14 23 C12 25 12 25 9.1796875 25.1953125 C8.08914063 25.17210938 6.99859375 25.14890625 5.875 25.125 C4.77929688 25.10695313 3.68359375 25.08890625 2.5546875 25.0703125 C1.71164062 25.04710938 0.86859375 25.02390625 0 25 C0 24.34 0 23.68 0 23 C0.99 23 1.98 23 3 23 C3 16.07 3 9.14 3 2 C2.01 2 1.02 2 0 2 C0 1.34 0 0.68 0 0 Z " fill="#0D0D0D" transform="translate(1,25)"/>
<path d="M0 0 C5.28 0 10.56 0 16 0 C14.36947099 4.07632253 12.95212039 6.71742885 10.4375 10.1875 C8.02799361 13.47878323 8.02799361 13.47878323 6 17 C8.93443402 16.73343428 8.93443402 16.73343428 12 16 C12.66 15.01 13.32 14.02 14 13 C14.66 13 15.32 13 16 13 C16 14.98 16 16.96 16 19 C10.39 19 4.78 19 -1 19 C0.63949163 14.90127093 2.10151612 12.19233872 4.625 8.6875 C5.25664062 7.80449219 5.88828125 6.92148437 6.5390625 6.01171875 C7.02117187 5.34785156 7.50328125 4.68398438 8 4 C6.35 3.67 4.7 3.34 3 3 C3 3.99 3 4.98 3 6 C2.01 6 1.02 6 0 6 C0 4.02 0 2.04 0 0 Z " fill="#FEC90B" transform="translate(131,31)"/>
<path d="M0 0 C4.95 0 9.9 0 15 0 C13.93533025 4.25867902 12.4015747 6.65166869 9.9375 10.25 C9.20402344 11.32765625 8.47054687 12.4053125 7.71484375 13.515625 C7.14894531 14.33546875 6.58304688 15.1553125 6 16 C7.98 16 9.96 16 12 16 C12.33 15.01 12.66 14.02 13 13 C13.99 13 14.98 13 16 13 C16 14.98 16 16.96 16 19 C10.39 19 4.78 19 -1 19 C0.63231366 14.91921584 2.2583317 11.82515683 4.625 8.1875 C5.25664063 7.21167969 5.88828125 6.23585938 6.5390625 5.23046875 C7.26222656 4.12638672 7.26222656 4.12638672 8 3 C5.52733235 3.34444881 5.52733235 3.34444881 3 4 C2.67 4.66 2.34 5.32 2 6 C1.34 6 0.68 6 0 6 C0 4.02 0 2.04 0 0 Z " fill="#131312" transform="translate(49,31)"/>
<path d="M0 0 C4.95 0 9.9 0 15 0 C14.67 0.66 14.34 1.32 14 2 C12.02 2 10.04 2 8 2 C8 4.97 8 7.94 8 11 C9.32 11.33 10.64 11.66 12 12 C11.01 12 10.02 12 9 12 C9 15.63 9 19.26 9 23 C10.32 23 11.64 23 13 23 C13 23.66 13 24.32 13 25 C8.71 25 4.42 25 0 25 C0 24.34 0 23.68 0 23 C0.99 23 1.98 23 3 23 C3 16.07 3 9.14 3 2 C2.01 2 1.02 2 0 2 C0 1.34 0 0.68 0 0 Z " fill="#FEC806" transform="translate(86,25)"/>
<path d="M0 0 C4.95 0 9.9 0 15 0 C13.91543372 4.33826511 11.99149595 7.1908326 9.4375 10.75 C9.01275391 11.35199219 8.58800781 11.95398438 8.15039062 12.57421875 C7.10564478 14.05329714 6.05353984 15.52717259 5 17 C8.465 16.505 8.465 16.505 12 16 C12.33 15.01 12.66 14.02 13 13 C13.66 13 14.32 13 15 13 C15 14.98 15 16.96 15 19 C9.72 19 4.44 19 -1 19 C0.06466975 14.74132098 1.5984253 12.34833131 4.0625 8.75 C4.79597656 7.67234375 5.52945313 6.5946875 6.28515625 5.484375 C6.85105469 4.66453125 7.41695312 3.8446875 8 3 C6.02 3 4.04 3 2 3 C2 3.99 2 4.98 2 6 C1.34 6 0.68 6 0 6 C0 4.02 0 2.04 0 0 Z " fill="#0A0A09" transform="translate(68,31)"/>
<path d="M0 0 C5.33333333 0 10.66666667 0 16 0 C16.33 1.65 16.66 3.3 17 5 C15.68 5.33 14.36 5.66 13 6 C12.67 5.34 12.34 4.68 12 4 C11.34 4 10.68 4 10 4 C8.73762269 6.52475462 8.90143596 8.31200466 8.9375 11.125 C8.95103516 12.49011719 8.95103516 12.49011719 8.96484375 13.8828125 C8.97644531 14.58148438 8.98804688 15.28015625 9 16 C9.99 16.33 10.98 16.66 12 17 C12 17.66 12 18.32 12 19 C8.04 19 4.08 19 0 19 C0 18.34 0 17.68 0 17 C0.66 16.67 1.32 16.34 2 16 C2 11.71 2 7.42 2 3 C1.34 2.67 0.68 2.34 0 2 C0 1.34 0 0.68 0 0 Z " fill="#FEC808" transform="translate(191,31)"/>
<path d="M0 0 C5.79556778 -0.50838314 8.95174825 -0.11808303 13.5234375 3.56640625 C15.53760746 5.5219628 16.85484258 7.44023636 18 10 C18 10.99 18 11.98 18 13 C12.15914326 12.59718229 8.62264119 11.887221 4 8 C0 2.73684211 0 2.73684211 0 0 Z " fill="#B2B3B7" transform="translate(66,11)"/>
<path d="M0 0 C-1.03111896 4.43381155 -2.48601363 7.14755022 -6.13671875 9.96484375 C-9.52291136 11.84606186 -13.20228184 12.43456196 -17 13 C-17.33 12.34 -17.66 11.68 -18 11 C-16.7260411 8.96166576 -15.38938077 6.96147874 -14 5 C-13.34 5 -12.68 5 -12 5 C-11.566875 4.0409375 -11.566875 4.0409375 -11.125 3.0625 C-8.74376117 -1.30310452 -4.41676314 -0.07123812 0 0 Z " fill="#C6C8CE" transform="translate(59,11)"/>
<path d="M0 0 C0 0.66 0 1.32 0 2 C1.32 2 2.64 2 4 2 C4.125 5.375 4.125 5.375 4 9 C2 11 2 11 -1.5 11.25 C-5 11 -5 11 -7 9 C-7.55045872 3.82568807 -7.55045872 3.82568807 -5.75 1.125 C-4 0 -4 0 0 0 Z " fill="#FECA11" transform="translate(178,39)"/>
<path d="M0 0 C0 0.66 0 1.32 0 2 C1.32 2 2.64 2 4 2 C4.125 5.375 4.125 5.375 4 9 C2 11 2 11 -1.5 11.25 C-5 11 -5 11 -7 9 C-7.55045872 3.82568807 -7.55045872 3.82568807 -5.75 1.125 C-4 0 -4 0 0 0 Z " fill="#FECA11" transform="translate(157,39)"/>
<path d="M0 0 C0 0.66 0 1.32 0 2 C1.32 2 2.64 2 4 2 C4.125 5.375 4.125 5.375 4 9 C2 11 2 11 -1.5 11.25 C-5 11 -5 11 -7 9 C-7.55045872 3.82568807 -7.55045872 3.82568807 -5.75 1.125 C-4 0 -4 0 0 0 Z " fill="#FECA11" transform="translate(117,39)"/>
<path d="M0 0 C1.65 0 3.3 0 5 0 C6 1 6 1 6.1328125 2.8125 C6.13023438 3.534375 6.12765625 4.25625 6.125 5 C6.12757812 5.721875 6.13015625 6.44375 6.1328125 7.1875 C6 9 6 9 5 10 C3.35 10 1.7 10 0 10 C0 6.7 0 3.4 0 0 Z " fill="#EBE9E5" transform="translate(10,38)"/>
<path d="M0 0 C-0.969375 0.45375 -1.93875 0.9075 -2.9375 1.375 C-6.07079582 2.65786221 -6.07079582 2.65786221 -7 5 C-6.34 5.33 -5.68 5.66 -5 6 C-5.9590625 6.86625 -5.9590625 6.86625 -6.9375 7.75 C-9.05761684 10.06285474 -9.29692428 11.08725774 -10 14 C-10.99 14.33 -11.98 14.66 -13 15 C-12.835 14.071875 -12.67 13.14375 -12.5 12.1875 C-11.92251612 9.04378647 -11.92251612 9.04378647 -12 6 C-10.99842285 2.79495313 -10.02433065 2.01533889 -7.125 0.1875 C-4.02316031 -0.99119908 -2.9798555 -1.26070809 0 0 Z " fill="#2D2D2D" transform="translate(52,10)"/>
<path d="M0 0 C2.97 0.495 2.97 0.495 6 1 C6.125 4.375 6.125 4.375 6 8 C5.34 8.66 4.68 9.32 4 10 C2.68 10 1.36 10 0 10 C0 6.7 0 3.4 0 0 Z " fill="#F5F1E7" transform="translate(95,38)"/>
<path d="M0 0 C1.8871875 0.061875 1.8871875 0.061875 3.8125 0.125 C3.8125 0.785 3.8125 1.445 3.8125 2.125 C3.11382812 2.36734375 2.41515625 2.6096875 1.6953125 2.859375 C0.78523438 3.19453125 -0.12484375 3.5296875 -1.0625 3.875 C-1.96742187 4.19984375 -2.87234375 4.5246875 -3.8046875 4.859375 C-6.50797018 6.29521695 -7.15456853 7.29927942 -8.1875 10.125 C-9.1875 8.125 -9.1875 8.125 -8.4375 5.125 C-6.61032087 0.73977009 -4.50564665 -0.14772612 0 0 Z " fill="#96979A" transform="translate(55.1875,10.875)"/>
<path d="M0 0 C2.475 0.495 2.475 0.495 5 1 C5 3.31 5 5.62 5 8 C3.35 8.33 1.7 8.66 0 9 C0 6.03 0 3.06 0 0 Z " fill="#E7E5E1" transform="translate(10,27)"/>
<path d="M0 0 C2.475 0.495 2.475 0.495 5 1 C5 2.98 5 4.96 5 7 C3.35 7.33 1.7 7.66 0 8 C0 5.36 0 2.72 0 0 Z " fill="#F5F1E7" transform="translate(95,27)"/>
<path d="M0 0 C3.63 0 7.26 0 11 0 C9 4 9 4 6.625 4.9375 C4 5 4 5 1.6875 3.6875 C1.130625 3.130625 0.57375 2.57375 0 2 C0 1.34 0 0.68 0 0 Z " fill="#D8A825" transform="translate(57,21)"/>
<path d="M0 0 C1.32 0 2.64 0 4 0 C3.67 1.98 3.34 3.96 3 6 C1.35 6 -0.3 6 -2 6 C-1.125 1.125 -1.125 1.125 0 0 Z " fill="#F6EDCF" transform="translate(178,41)"/>
<path d="M0 0 C1.32 0 2.64 0 4 0 C3.67 1.98 3.34 3.96 3 6 C1.35 6 -0.3 6 -2 6 C-1.125 1.125 -1.125 1.125 0 0 Z " fill="#F6EDCF" transform="translate(157,41)"/>
<path d="M0 0 C1.32 0 2.64 0 4 0 C3.67 1.98 3.34 3.96 3 6 C1.35 6 -0.3 6 -2 6 C-1.125 1.125 -1.125 1.125 0 0 Z " fill="#F6EDCF" transform="translate(117,41)"/>
<path d="M0 0 C3.3 0.33 6.6 0.66 10 1 C10 1.66 10 2.32 10 3 C7.69 3 5.38 3 3 3 C3 3.99 3 4.98 3 6 C2.01 6 1.02 6 0 6 C0 4.02 0 2.04 0 0 Z " fill="#FDCF2D" transform="translate(131,31)"/>
<path d="M0 0 C1.4540625 0.0309375 1.4540625 0.0309375 2.9375 0.0625 C1.9475 2.0425 0.9575 4.0225 -0.0625 6.0625 C-1.3825 5.7325 -2.7025 5.4025 -4.0625 5.0625 C-4.0625 0.08290816 -4.0625 0.08290816 0 0 Z " fill="#FECB18" transform="translate(177.0625,30.9375)"/>
<path d="M0 0 C1.4540625 0.0309375 1.4540625 0.0309375 2.9375 0.0625 C1.9475 2.0425 0.9575 4.0225 -0.0625 6.0625 C-1.3825 5.7325 -2.7025 5.4025 -4.0625 5.0625 C-4.0625 0.08290816 -4.0625 0.08290816 0 0 Z " fill="#FECB18" transform="translate(156.0625,30.9375)"/>
<path d="M0 0 C1.4540625 0.0309375 1.4540625 0.0309375 2.9375 0.0625 C1.9475 2.0425 0.9575 4.0225 -0.0625 6.0625 C-1.3825 5.7325 -2.7025 5.4025 -4.0625 5.0625 C-4.0625 0.08290816 -4.0625 0.08290816 0 0 Z " fill="#FECB18" transform="translate(116.0625,30.9375)"/>
<path d="M0 0 C0.66 0 1.32 0 2 0 C2 2.31 2 4.62 2 7 C0.35 7.33 -1.3 7.66 -3 8 C-3.33 7.34 -3.66 6.68 -4 6 C-2.7260411 3.96166576 -1.38938077 1.96147874 0 0 Z " fill="#C8CACE" transform="translate(45,16)"/>
<path d="M0 0 C2.0625 0.4375 2.0625 0.4375 4 1 C4 2.65 4 4.3 4 6 C2.35 6 0.7 6 -1 6 C-1.042721 4.33388095 -1.04063832 2.66617115 -1 1 C-0.67 0.67 -0.34 0.34 0 0 Z " fill="#F6ECCC" transform="translate(178,33)"/>
<path d="M0 0 C2.0625 0.4375 2.0625 0.4375 4 1 C4 2.65 4 4.3 4 6 C2.35 6 0.7 6 -1 6 C-1.042721 4.33388095 -1.04063832 2.66617115 -1 1 C-0.67 0.67 -0.34 0.34 0 0 Z " fill="#F6ECCC" transform="translate(157,33)"/>
<path d="M0 0 C2.0625 0.4375 2.0625 0.4375 4 1 C4 2.65 4 4.3 4 6 C2.35 6 0.7 6 -1 6 C-1.042721 4.33388095 -1.04063832 2.66617115 -1 1 C-0.67 0.67 -0.34 0.34 0 0 Z " fill="#F6ECCC" transform="translate(117,33)"/>
<path d="M0 0 C4.40287778 1.34532377 6.54758631 3.09430413 9 7 C9.25 9.8125 9.25 9.8125 9 12 C8.443125 11.278125 7.88625 10.55625 7.3125 9.8125 C5.0270024 6.92913577 5.0270024 6.92913577 2.25 4.3125 C0 2 0 2 0 0 Z " fill="#0F0F0F" transform="translate(76,11)"/>
<path d="M0 0 C-5.75 3 -5.75 3 -8 3 C-8.33 3.99 -8.66 4.98 -9 6 C-9.99 6 -10.98 6 -12 6 C-10.9200311 2.86809018 -9.99049526 1.99400788 -7.125 0.1875 C-4.02316031 -0.99119908 -2.9798555 -1.26070809 0 0 Z " fill="#B8BABE" transform="translate(52,10)"/>
<path d="M0 0 C4.84166786 0.45038771 7.49668287 1.59972161 11 5 C11 5.66 11 6.32 11 7 C9.68 6.67 8.36 6.34 7 6 C7 5.34 7 4.68 7 4 C6.030625 3.71125 5.06125 3.4225 4.0625 3.125 C1 2 1 2 0 0 Z " fill="#B8BABD" transform="translate(74,9)"/>
<path d="M0 0 C2.97 0 5.94 0 9 0 C8.67 0.99 8.34 1.98 8 3 C5.03 2.505 5.03 2.505 2 2 C2 2.99 2 3.98 2 5 C1.34 5 0.68 5 0 5 C0 3.35 0 1.7 0 0 Z " fill="#272726" transform="translate(68,32)"/>
<path d="M0 0 C4.83256305 0.41421969 6.82679218 2.46413986 10 6 C9.01 6.99 8.02 7.98 7 9 C6.34 8.34 5.68 7.68 5 7 C5.66 7 6.32 7 7 7 C6.21625 6.21625 5.4325 5.4325 4.625 4.625 C3.08333333 3.08333333 1.54166667 1.54166667 0 0 Z " fill="#1C1C1C" transform="translate(78,9)"/>
<path d="M0 0 C6.64615385 1.47692308 6.64615385 1.47692308 8.4375 4.125 C8.7159375 5.053125 8.7159375 5.053125 9 6 C5.32579134 5.69381595 4.21864487 5.24228216 1.6875 2.4375 C1.130625 1.633125 0.57375 0.82875 0 0 Z " fill="#E1E2E5" transform="translate(69,14)"/>
<path d="M0 0 C1.32 0 2.64 0 4 0 C4 0.66 4 1.32 4 2 C3.38125 2.04125 2.7625 2.0825 2.125 2.125 C1.42375 2.41375 0.7225 2.7025 0 3 C-1.3045656 5.99615946 -1.3045656 5.99615946 -2 9 C-3 7 -3 7 -2.125 3.9375 C-1 1 -1 1 0 0 Z " fill="#AAABAF" transform="translate(49,12)"/>
<path d="M0 0 C-5.75 5 -5.75 5 -8 5 C-7.8125 3.125 -7.8125 3.125 -7 1 C-2.66666667 -1.33333333 -2.66666667 -1.33333333 0 0 Z " fill="#E1E2E6" transform="translate(56,15)"/>
<path d="M0 0 C2.64 0 5.28 0 8 0 C7.34 0.66 6.68 1.32 6 2 C6.33 2.66 6.66 3.32 7 4 C5.02 4 3.04 4 1 4 C0.67 2.68 0.34 1.36 0 0 Z " fill="#9A9C9F" transform="translate(66,11)"/>
<path d="M0 0 C2.97 0 5.94 0 9 0 C8.67 0.66 8.34 1.32 8 2 C5.03 1.505 5.03 1.505 2 1 C1.67 2.32 1.34 3.64 1 5 C0.34 5 -0.32 5 -1 5 C-0.67 3.35 -0.34 1.7 0 0 Z " fill="#0B0B0B" transform="translate(50,32)"/>
<path d="M0 0 C1.65 0 3.3 0 5 0 C5.33 0.99 5.66 1.98 6 3 C3.69 3 1.38 3 -1 3 C-0.67 2.01 -0.34 1.02 0 0 Z " fill="#D0A125" transform="translate(60,17)"/>
<path d="M0 0 C1.98 0 3.96 0 6 0 C6.66 1.32 7.32 2.64 8 4 C5.6875 4.25 5.6875 4.25 3 4 C1.1875 2 1.1875 2 0 0 Z " fill="#C6C8CC" transform="translate(70,12)"/>
</svg>
